<svg width="199" height="153" viewBox="0 0 199 153" fill="none" xmlns="http://www.w3.org/2000/svg">
<path d="M168.366 103.975C174.325 100.77 178.379 94.4643 178.379 87.2405V82.5805C178.379 72.0999 169.856 63.5768 159.375 63.5768C148.894 63.5768 140.371 72.0999 140.371 82.5805V87.2405C140.371 94.4643 144.425 100.77 150.384 103.975C135.469 107.543 123.897 119.791 121.316 135.053H19.6447V78.6654H39.6359L64.0965 104.893V78.6481L108.479 78.4575C117.158 78.4229 124.209 71.3376 124.209 62.6586V17.4966L157.625 17.0115V48.6267H161.09V13.4949L124.105 14.0319C123.221 6.1498 116.534 0 108.41 0H73.4857V3.46467H108.41C115.218 3.46467 120.744 8.99083 120.744 15.7989V62.676C120.744 69.4494 115.235 74.9755 108.462 75.0102L60.6318 75.2181V96.1101L41.143 75.2008H15.7989C8.99083 75.2008 3.46467 69.6746 3.46467 62.8665V15.7989C3.46467 9.00815 8.99083 3.46467 15.7989 3.46467H60.7877V0H15.7989C7.08526 0 0 7.08526 0 15.7989V62.8838C0 71.5975 7.08526 78.6827 15.7989 78.6827H16.18V138.552H120.882C120.813 139.54 120.761 140.544 120.761 141.549V153H198.006V141.549C198.006 123.342 185.343 108.063 168.383 103.992L168.366 103.975ZM143.819 87.2405V82.5805C143.819 74.0054 150.8 67.0414 159.358 67.0414C167.915 67.0414 174.897 74.0228 174.897 82.5805V87.2405C174.897 95.8156 167.915 102.78 159.358 102.78C150.8 102.78 143.819 95.7982 143.819 87.2405ZM175.312 110.246L159.358 127.864L143.42 110.246C148.219 107.786 153.624 106.383 159.358 106.383C165.092 106.383 170.514 107.803 175.312 110.246ZM194.524 149.535H124.209V141.549C124.209 129.163 130.653 118.284 140.354 112.03L159.375 133.043L178.396 112.03C188.097 118.301 194.524 129.18 194.524 141.549V149.535Z" fill="#B27EE3"/>
</svg>
