<svg width="172" height="235" viewBox="0 0 172 235" fill="none" xmlns="http://www.w3.org/2000/svg">
<g clip-path="url(#clip0_86_1622)">
<path d="M44.8906 234.799H76.0817V106.966H44.8906V234.821V234.799ZM49.2745 111.328H71.6978V230.415H49.2745V111.35V111.328Z" fill="#4301A3"/>
<path d="M0 234.798H31.191V142.716H0V234.798ZM4.38384 147.1H26.8072V230.415H4.38384V147.1Z" fill="#4301A3"/>
<path d="M91.8193 234.798H123.01V78.4268H91.8193V234.798ZM96.2032 82.8106H118.627V230.415H96.2032V82.8106Z" fill="#4301A3"/>
<path d="M140.831 49.9102V234.799H172.022V49.9102H140.831ZM167.638 230.437H145.215V54.294H167.638V230.415V230.437Z" fill="#4301A3"/>
<path d="M1.27148 108.018L3.13462 111.985C7.89108 109.771 117.246 58.327 154.487 8.94304L156.438 26.6538L160.799 26.1715L157.906 0L132.02 4.77839L132.809 9.09647L151.484 5.63324C115.339 54.3815 2.4332 107.47 1.27148 108.018Z" fill="#4301A3"/>
</g>
<defs>
<clipPath id="clip0_86_1622">
<rect width="172" height="234.799" fill="white"/>
</clipPath>
</defs>
</svg>
