<svg width="277" height="197" viewBox="0 0 277 197" fill="none" xmlns="http://www.w3.org/2000/svg">
<g clip-path="url(#clip0_86_1606)">
<path d="M222.959 116.798V0H76.1514L75.5816 0.514528L73.7501 2.18674L46.8672 26.734V107.837H50.9373V29.9284L77.1283 31.0218C77.1283 31.0218 77.1893 31.0218 77.2097 31.0218C77.7388 31.0218 78.2475 30.8074 78.6342 30.4215C79.0412 30.0141 79.265 29.4353 79.2447 28.8565L78.9598 4.28774H218.889V116.798H185.311V100.119L149.555 130.197L185.311 161.133V143.661H276.868V116.798H222.959ZM54.1323 25.7693L68.2555 12.8632L74.9304 6.77462L75.1746 26.6483L54.1323 25.7693ZM272.818 139.351H181.261V152.043L156.047 130.24L181.261 109.016V121.064H272.818V139.351Z" fill="#4301A3"/>
<path d="M218.889 192.712H50.9371V143.661H91.5565V161.133L127.312 130.197L91.5565 100.119V116.798H0V143.661H46.867V197H222.959V155.045H218.889V192.712ZM4.07008 121.086H95.6266V109.037L120.841 130.261L95.6266 152.065V139.373H4.07008V121.086Z" fill="#4301A3"/>
<path d="M186.39 27.2056L125.908 77.2649L105.11 55.033L102.2 58.0558L125.562 83.0105L188.913 30.5714L186.39 27.2056Z" fill="#4301A3"/>
</g>
<defs>
<clipPath id="clip0_86_1606">
<rect width="276.867" height="197" fill="white"/>
</clipPath>
</defs>
</svg>
