<svg width="266" height="237" viewBox="0 0 266 237" fill="none" xmlns="http://www.w3.org/2000/svg">
<g clip-path="url(#clip0_86_1616)">
<path d="M251.441 116.419L222.081 42.2813H253.376V38.1198H143.615C141.014 34.1871 136.54 31.5861 131.484 31.5861C126.781 31.5861 122.62 33.8334 119.957 37.2874V4.16155H141.888V26.2177H146.049V0H115.795V38.1198H11.0073V42.2813H43.2385L13.8579 116.419H0V118.5C0 144.031 20.7661 164.797 46.2972 164.797C71.8283 164.797 92.5944 144.031 92.5944 118.5V116.419H78.7364L49.3559 42.2813H115.774V176.179H119.936V54.9948C122.599 58.4697 126.761 60.6961 131.463 60.6961C135.542 60.6961 139.204 59.0107 141.846 56.3057V186.312H95.7155V204.894H83.3141V236.979H180.986V204.894H168.584V186.312H146.008V42.2813H215.922L186.562 116.419H172.704V118.5C172.704 144.031 193.47 164.797 219.001 164.797C244.532 164.797 265.298 144.031 265.298 118.5V116.419H251.441ZM46.2972 160.636C23.7624 160.636 5.30597 142.845 4.22397 120.581H88.3704C87.2884 142.845 68.8319 160.636 46.2972 160.636ZM18.3524 116.419L46.2972 45.8602L74.242 116.44H18.3524V116.419ZM176.866 209.055V232.818H87.4965V209.055H176.845H176.866ZM164.464 204.894H99.9187V190.474H164.464V204.894ZM131.484 56.5346C125.762 56.5346 121.101 51.8737 121.101 46.1515C121.101 44.7782 121.371 43.4881 121.871 42.2813H121.954V42.0524C123.556 38.3486 127.218 35.7685 131.505 35.7685C137.227 35.7685 141.888 40.4294 141.888 46.1515C141.888 51.8737 137.227 56.5346 131.505 56.5346H131.484ZM219.022 45.8602L246.967 116.44H191.057L219.001 45.8602H219.022ZM219.022 160.636C196.487 160.636 178.031 142.845 176.949 120.581H261.116C260.034 142.845 241.578 160.636 219.043 160.636H219.022Z" fill="#4301A3"/>
</g>
<defs>
<clipPath id="clip0_86_1616">
<rect width="265.298" height="237" fill="white"/>
</clipPath>
</defs>
</svg>
