<svg width="184" height="177" viewBox="0 0 184 177" fill="none" xmlns="http://www.w3.org/2000/svg">
<g clip-path="url(#clip0_252_123)">
<path d="M171.445 0H12.5553C5.63425 0 0 5.63425 0 12.5553V127.588C0 134.509 5.63425 140.143 12.5553 140.143H70.7411L61.4377 164.35H48.2563V176.87H135.744V164.35H120.476L111.416 140.143H171.462C178.383 140.143 184.017 134.509 184.017 127.588V12.5553C184.017 5.63425 178.383 0 171.462 0H171.445ZM12.5553 3.47793H171.445C176.453 3.47793 180.522 7.54711 180.522 12.5553V115.919H3.47793V12.5553C3.47793 7.54711 7.54711 3.47793 12.5553 3.47793ZM132.266 173.392H51.7342V167.828H132.266V173.392ZM116.754 164.35H65.1765L74.4799 140.143H107.694L116.754 164.35ZM171.445 136.665H12.5553C7.54711 136.665 3.47793 132.596 3.47793 127.588V119.38H180.522V127.588C180.522 132.596 176.453 136.665 171.445 136.665Z" fill="#B27EE3"/>
<path d="M31.4229 13.9116H13.3203V32.0143H31.4229V13.9116ZM27.945 28.5363H16.7982V17.3896H27.945V28.5363Z" fill="#B27EE3"/>
<path d="M31.4229 38.7441H13.3203V56.8468H31.4229V38.7441ZM27.945 53.3688H16.7982V42.2221H27.945V53.3688Z" fill="#B27EE3"/>
<path d="M31.4229 63.5767H13.3203V81.6793H31.4229V63.5767ZM27.945 78.2014H16.7982V67.0546H27.945V78.2014Z" fill="#B27EE3"/>
<path d="M31.4229 88.4092H13.3203V106.512H31.4229V88.4092ZM27.945 103.034H16.7982V91.8871H27.945V103.034Z" fill="#B27EE3"/>
<path d="M89.4002 76.2536L85.0702 91.8869H153.133L117.119 57.751C117.85 55.3339 118.25 52.7776 118.25 50.1344C118.25 35.6488 106.477 23.876 91.9913 23.876C77.5057 23.876 65.7329 35.6488 65.7329 50.1344C65.7329 63.7331 76.1319 74.9494 89.4002 76.271V76.2536ZM144.404 88.409H89.6437L92.9825 76.3406C103.069 75.958 111.694 69.889 115.746 61.2464L144.404 88.409ZM93.9563 72.8105L101.017 47.2825L113.085 58.7249C109.92 66.4633 102.634 72.0801 93.9563 72.8279V72.8105ZM91.9913 27.3365C104.547 27.3365 114.772 37.5616 114.772 50.117C114.772 51.8038 114.58 53.421 114.233 55.0035L99.208 40.7613L90.3393 72.8105C78.5491 71.9584 69.2108 62.1158 69.2108 50.117C69.2108 38.1181 79.436 27.3365 91.9913 27.3365Z" fill="#B27EE3"/>
</g>
<defs>
<clipPath id="clip0_252_123">
<rect width="184" height="176.87" fill="white"/>
</clipPath>
</defs>
</svg>
