<svg width="56" height="50" viewBox="0 0 56 50" fill="none" xmlns="http://www.w3.org/2000/svg">
<g id="Isolation_Mode" clip-path="url(#clip0_14_307)">
<path id="Vector" d="M47.29 20.21L56 15.42L28 0L0 15.41L8.71 20.2L0 25L8.71 29.79L0 34.59L28 50L56 34.59L47.29 29.8L56 25.01L47.29 20.22V20.21ZM4.13 15.41L28 2.27L51.87 15.42L28 28.56L4.13 15.41ZM51.87 34.58L28 47.73L4.13 34.58L10.77 30.92L28 40.41L45.23 30.92L51.87 34.58ZM28 38.13L4.13 25L10.77 21.34L28 30.83L45.23 21.34L51.87 25L28 38.14V38.13Z" fill="white"/>
</g>
<defs>
<clipPath id="clip0_14_307">
<rect width="56" height="50" fill="white"/>
</clipPath>
</defs>
</svg>
