<svg width="192" height="150" viewBox="0 0 192 150" fill="none" xmlns="http://www.w3.org/2000/svg">
<g clip-path="url(#clip0_252_147)">
<path d="M119.377 85.5122V10.6375C119.377 4.78152 114.613 0 108.739 0H10.6375C4.76361 0 0 4.76361 0 10.6375V136.981C0 142.837 4.76361 147.618 10.6375 147.618H113.968C119.825 147.618 124.606 142.855 124.606 136.981H121.024C121.024 140.867 117.855 144.037 113.968 144.037H10.6375C6.75143 144.037 3.58166 140.867 3.58166 136.981V10.6375C3.58166 6.75143 6.75143 3.58166 10.6375 3.58166H108.739C112.625 3.58166 115.795 6.75143 115.795 10.6375V85.548L101.719 85.6554V127.633H124.893L148.478 150V63.1089L124.875 85.4764L119.377 85.5122ZM144.896 71.4362V141.673L126.307 124.051H105.283V89.2192L126.307 89.058L144.878 71.4542L144.896 71.4362Z" fill="#B27EE3"/>
<path d="M160.476 84.7061L158.058 87.3386C158.058 87.3386 165.508 94.287 165.884 104.101C166.117 110.351 163.449 116.475 157.969 122.331L160.583 124.785C166.744 118.213 169.735 111.21 169.466 103.975C169.036 92.6932 160.834 85.0284 160.476 84.7061Z" fill="#B27EE3"/>
<path d="M167.479 75.0537L165.115 77.74C166.189 78.6891 191.314 101.558 164.936 132.396L167.658 134.724C196.347 101.146 167.765 75.3044 167.479 75.0537Z" fill="#B27EE3"/>
<path d="M174.768 66.0278L172.189 68.5171C173.586 69.9856 206.179 104.781 172.171 141.637L174.803 144.072C211.121 104.71 175.144 66.4218 174.786 66.0457L174.768 66.0278Z" fill="#B27EE3"/>
<path d="M73.3521 65.5444L75.0355 68.7142C75.34 68.553 82.6466 64.5953 83.5599 55.8381C84.5628 46.293 77.5964 35.2436 62.8758 22.9764L59.9388 20.5229V96.2214C56.6437 91.7801 51.3787 88.8969 45.4331 88.8969C35.4582 88.8969 27.3457 97.0093 27.3457 106.984C27.3457 116.959 35.4582 125.072 45.4331 125.072C55.408 125.072 63.5205 116.959 63.5205 106.984V28.2593C75.0714 38.5208 80.7483 47.8689 79.9961 55.4083C79.3156 62.2493 73.585 65.4191 73.3521 65.5444ZM45.4331 121.49C37.4281 121.49 30.9274 114.989 30.9274 106.984C30.9274 98.9793 37.4281 92.4785 45.4331 92.4785C53.4381 92.4785 59.9388 98.9793 59.9388 106.984C59.9388 114.989 53.4381 121.49 45.4331 121.49Z" fill="#B27EE3"/>
</g>
<defs>
<clipPath id="clip0_252_147">
<rect width="191.01" height="150" fill="white"/>
</clipPath>
</defs>
</svg>
