<svg width="160" height="178" viewBox="0 0 160 178" fill="none" xmlns="http://www.w3.org/2000/svg">
<path d="M150.375 0H73.0123C67.6946 0 63.3877 4.08716 63.3877 9.11188V73.1441H66.3175V9.11188C66.3175 5.69859 69.3206 2.92987 73.0123 2.92987H88.7457L95.4697 11.8367H129.222L135.272 2.92987H150.375C154.067 2.92987 157.07 5.69859 157.07 9.11188V152.778C157.07 156.191 154.067 158.96 150.375 158.96H73.0123C69.3206 158.96 66.3175 156.191 66.3175 152.778V126.043L91.236 136.664C92.3933 139.769 95.3818 141.981 98.8976 141.981C103.41 141.981 107.087 138.304 107.087 133.792V70.3754C107.087 65.8634 103.41 62.1864 98.8976 62.1864C95.2353 62.1864 92.1296 64.6036 91.0895 67.9289L52.8401 89.3609H21.7689V93.2576H11.5876C5.20051 93.2576 0 98.4582 0 104.845C0 111.232 5.20051 116.433 11.5876 116.433H21.7689V120.33H30.5732V177.506H47.6103V120.33H52.8987L63.373 124.798V152.778C63.373 157.803 67.6946 161.89 72.9976 161.89H150.361C155.678 161.89 159.985 157.803 159.985 152.778V9.11188C159.985 4.08716 155.664 0 150.361 0H150.375ZM127.669 8.90679H96.9346L92.4226 2.92987H131.727L127.669 8.90679ZM98.883 65.1309C101.784 65.1309 104.142 67.4895 104.142 70.39V133.822C104.142 136.722 101.784 139.081 98.883 139.081C95.9824 139.081 93.6239 136.722 93.6239 133.822V70.3754C93.6239 67.4748 95.9824 65.1163 98.883 65.1163V65.1309ZM11.5876 113.503C6.81194 113.503 2.92987 109.621 2.92987 104.845C2.92987 100.07 6.81194 96.1875 11.5876 96.1875H21.7689V113.503H11.5876ZM44.6805 174.591H33.503V120.344H44.6805V174.591ZM30.5732 117.414H24.6988V92.3054H51.7268V117.414H30.5585H30.5732ZM54.6713 91.6902L90.694 71.518L90.2399 133.06L54.6713 117.898V91.6902Z" fill="#B27EE3"/>
</svg>
