<svg width="162" height="198" viewBox="0 0 162 198" fill="none" xmlns="http://www.w3.org/2000/svg">
<g clip-path="url(#clip0_86_1636)">
<path d="M159.978 151.121H63.2961C62.3296 151.121 61.5389 151.912 61.5389 152.878V164.564C61.5389 179.746 54.2113 192.275 44.775 193.435C20.4375 180.308 19.5062 149.926 19.4886 149.662V3.51444H132.425V140.525H135.94V0H0.264648V152.878C0.264648 164.669 4.86856 175.775 13.2154 184.104C21.5094 192.38 32.4921 196.949 44.1951 197.002C44.283 197.002 44.3533 197.055 44.4411 197.055H140.034C151.983 197.055 161.718 182.47 161.718 164.546V152.861C161.718 151.894 160.927 151.103 159.961 151.103L159.978 151.121ZM15.693 181.626C8.01399 173.947 3.77909 163.738 3.77909 152.878V3.51444H15.9742V149.698C15.9918 150.928 16.7825 177.672 37.3596 192.908C29.1885 191.484 21.6676 187.601 15.693 181.626ZM158.221 164.564C158.221 180.554 150.068 193.558 140.051 193.558H53.1921C60.2561 188.181 65.0358 177.163 65.0358 164.564V154.635H158.204V164.564H158.221Z" fill="#4301A3"/>
<path d="M34.2494 24.4954H113.623C114.589 24.4954 115.38 23.7046 115.38 22.7382C115.38 21.7717 114.589 20.981 113.623 20.981H34.2494C33.2829 20.981 32.4922 21.7717 32.4922 22.7382C32.4922 23.7046 33.2829 24.4954 34.2494 24.4954Z" fill="#4301A3"/>
<path d="M34.2494 42.2434H64.0694C65.0359 42.2434 65.8266 41.4527 65.8266 40.4862C65.8266 39.5198 65.0359 38.729 64.0694 38.729H34.2494C33.2829 38.729 32.4922 39.5198 32.4922 40.4862C32.4922 41.4527 33.2829 42.2434 34.2494 42.2434Z" fill="#4301A3"/>
<path d="M114.852 38.975L78.8646 38.729C77.8982 38.729 77.1074 39.5022 77.1074 40.4687C77.1074 41.4351 77.8806 42.2259 78.8471 42.2434L114.835 42.4895C115.801 42.4895 116.592 41.7163 116.592 40.7498C116.592 39.7833 115.819 38.9926 114.852 38.975Z" fill="#4301A3"/>
<path d="M114.835 55.3701H34.2494C33.2829 55.3701 32.4922 56.1609 32.4922 57.1273C32.4922 58.0938 33.2829 58.8846 34.2494 58.8846H114.835C115.802 58.8846 116.593 58.0938 116.593 57.1273C116.593 56.1609 115.802 55.3701 114.835 55.3701Z" fill="#4301A3"/>
<path d="M34.2494 75.8064H93.3447C94.3112 75.8064 95.1019 75.0157 95.1019 74.0492C95.1019 73.0827 94.3112 72.292 93.3447 72.292H34.2494C33.2829 72.292 32.4922 73.0827 32.4922 74.0492C32.4922 75.0157 33.2829 75.8064 34.2494 75.8064Z" fill="#4301A3"/>
<path d="M34.2494 89.5657H113.623C114.589 89.5657 115.38 88.775 115.38 87.8085C115.38 86.842 114.589 86.0513 113.623 86.0513H34.2494C33.2829 86.0513 32.4922 86.842 32.4922 87.8085C32.4922 88.775 33.2829 89.5657 34.2494 89.5657Z" fill="#4301A3"/>
<path d="M34.2494 107.313H64.0694C65.0359 107.313 65.8266 106.523 65.8266 105.556C65.8266 104.59 65.0359 103.799 64.0694 103.799H34.2494C33.2829 103.799 32.4922 104.59 32.4922 105.556C32.4922 106.523 33.2829 107.313 34.2494 107.313Z" fill="#4301A3"/>
<path d="M114.852 104.045L78.8646 103.799C77.8982 103.799 77.1074 104.572 77.1074 105.538C77.1074 106.505 77.8806 107.296 78.8471 107.313L114.835 107.559C115.801 107.559 116.592 106.786 116.592 105.82C116.592 104.853 115.819 104.062 114.852 104.045Z" fill="#4301A3"/>
<path d="M34.2494 123.954H114.835C115.802 123.954 116.593 123.164 116.593 122.197C116.593 121.231 115.802 120.44 114.835 120.44H34.2494C33.2829 120.44 32.4922 121.231 32.4922 122.197C32.4922 123.164 33.2829 123.954 34.2494 123.954Z" fill="#4301A3"/>
</g>
<defs>
<clipPath id="clip0_86_1636">
<rect width="161.471" height="197.072" fill="white" transform="translate(0.264648)"/>
</clipPath>
</defs>
</svg>
