<svg width="24" height="27" viewBox="0 0 24 27" fill="none" xmlns="http://www.w3.org/2000/svg">
<path d="M10.5 0C8.64375 0 7.125 1.51875 7.125 3.375H3.75C1.89375 3.375 0.375 4.89375 0.375 6.75H24C24 4.89375 22.4813 3.375 20.625 3.375H17.25C17.25 1.51875 15.7312 0 13.875 0H10.5ZM3.75 10.125V26.3587C3.75 26.73 4.02 27 4.39125 27H20.0175C20.3888 27 20.6588 26.73 20.6588 26.3587V10.125H17.2838V21.9375C17.2838 22.8825 16.5413 23.625 15.5963 23.625C14.6513 23.625 13.9088 22.8825 13.9088 21.9375V10.125H10.5337V21.9375C10.5337 22.8825 9.79125 23.625 8.84625 23.625C7.90125 23.625 7.15875 22.8825 7.15875 21.9375V10.125H3.78375H3.75Z" fill="white"/>
</svg>
