<svg width="182" height="175" viewBox="0 0 182 175" fill="none" xmlns="http://www.w3.org/2000/svg">
<path d="M179.439 51.8812C177.525 48.9934 174.588 47.0132 171.188 46.3201C167.789 45.6271 164.307 46.3201 161.419 48.2343L151.964 54.5049L139.026 63.1023V22.3762C139.026 21.4686 138.284 20.7261 137.376 20.7261H125.413V1.65016C125.413 0.742574 124.67 0 123.762 0H37.4753C37.0628 0 36.6833 0.165017 36.3697 0.445545C36.3697 0.445545 36.3367 0.445545 36.3367 0.478548C36.3367 0.478548 36.3037 0.49505 36.2872 0.511551L0.478648 37.3102C0.412641 37.3927 0.379638 37.4917 0.330133 37.5578C0.264126 37.6568 0.181618 37.7393 0.148615 37.8383C0.0661065 38.0363 0.0166016 38.2508 0.0166016 38.4653V160.825C0.0166016 161.733 0.759176 162.475 1.66677 162.475H12.3598V173.35C12.3598 174.257 13.1024 175 14.01 175H137.36C138.267 175 139.01 174.257 139.01 173.35V102.789C139.01 101.881 138.267 101.139 137.36 101.139C136.452 101.139 135.71 101.881 135.71 102.789V171.7H15.6602V162.475H123.746C124.654 162.475 125.396 161.733 125.396 160.825V104.323C125.396 104.026 125.297 103.779 125.165 103.531L131.04 99.6205L166.337 76.1716L175.792 69.901C181.766 65.9406 183.399 57.8548 179.423 51.8812H179.439ZM130.594 95.9571L119.868 79.802L152.426 58.1848L163.152 74.3399L130.594 95.9571ZM35.6932 5.84158L34.7361 36.8152H5.56116L35.6932 5.84158ZM122.096 159.175H3.30043V40.132H36.3367C37.2278 40.132 37.9539 39.4224 37.9869 38.5314L39.076 3.30033H122.096V58.1353C122.096 59.0429 122.838 59.7855 123.746 59.7855C124.654 59.7855 125.396 59.0429 125.396 58.1353V24.0264H135.71V64.3729C135.71 64.67 135.809 64.9175 135.941 65.1485L116.667 77.9538L81.3697 101.403C81.2212 101.502 81.0892 101.65 80.9737 101.799C80.9407 101.832 80.9077 101.881 80.8912 101.914C80.8747 101.947 80.8417 101.98 80.8252 102.013L70.3961 122.558C70.1321 123.086 70.1651 123.729 70.4952 124.208C70.8087 124.67 71.3202 124.95 71.8648 124.95C71.8978 124.95 71.9473 124.95 71.9803 124.95L94.9671 123.317C94.9671 123.317 95.0991 123.284 95.1651 123.284C95.2311 123.284 95.2806 123.267 95.3466 123.251C95.4786 123.201 95.6107 123.152 95.7262 123.069C95.7262 123.069 95.7427 123.069 95.7592 123.069L122.096 105.578V159.175ZM82.4588 106.056L91.4852 119.637L91.8978 120.248L74.6371 121.485L82.4588 106.056ZM95.2806 119.406L84.5546 103.251L117.112 81.6337L127.838 97.7888L95.2806 119.406ZM173.977 67.1452L165.891 72.5082L155.165 56.3531L163.251 50.9901C165.413 49.5545 168.003 49.0594 170.545 49.5545C173.086 50.066 175.281 51.5347 176.7 53.6964C179.654 58.1518 178.432 64.1914 173.977 67.1452Z" fill="#B27EE3"/>
</svg>
