<svg width="38" height="40" viewBox="0 0 38 40" fill="none" xmlns="http://www.w3.org/2000/svg">
<path d="M19.0142 39.3409C13.2728 39.3409 7.53426 39.3117 1.79283 39.3614C0.503765 39.3731 0.0373828 38.9901 0.00551817 37.6219C-0.0697982 34.6137 0.784753 32.1785 3.0848 30.1C3.95673 29.3136 4.44049 27.7408 4.5245 26.4837C4.75914 22.9932 4.39414 19.45 4.80549 15.9916C5.53548 9.87285 9.07535 5.82391 14.8573 3.84768C15.7206 3.55242 16.1812 3.21915 16.3868 2.26027C16.7142 0.748859 18.0148 -0.0813921 19.5125 0.00631048C20.9087 0.0881662 22.1022 1.02951 22.2963 2.5146C22.415 3.42963 22.8351 3.68397 23.5853 3.95C29.6715 6.11626 33.3736 11.4486 33.3938 18.0029C33.4025 20.7772 33.4286 23.5545 33.3852 26.3259C33.3562 28.0565 33.9268 29.4568 35.2681 30.5414C37.7709 32.5703 38.133 35.3592 37.9679 38.3294C37.9099 39.3935 37.122 39.338 36.3833 39.338C30.5955 39.338 24.8049 39.338 19.0171 39.338L19.0142 39.3409Z" fill="white"/>
</svg>
