<svg width="35" height="35" viewBox="0 0 35 35" fill="none" xmlns="http://www.w3.org/2000/svg">
<g id="Frame" clip-path="url(#clip0_748_1800)">
<path id="Vector" d="M21.4282 6.38586C23.8275 8.79572 26.2041 11.1807 28.6758 13.6652C27.0329 15.2856 25.3093 16.9661 23.6085 18.6673C18.3944 23.889 13.199 29.1293 7.96223 34.3283C7.60057 34.6888 6.97439 34.9416 6.45981 34.9582C4.39734 35.0286 2.3328 34.9872 0.0988046 34.9872C0.0988046 33.6776 0.2414 32.3971 0.0698721 31.16C-0.277317 28.6714 0.69192 26.9723 2.4754 25.2483C8.8984 19.0464 15.1478 12.6623 21.4282 6.38379V6.38586Z" fill="white"/>
<path id="Vector_2" d="M23.7598 4.03692C24.8509 2.93248 25.9669 1.76174 27.1304 0.642804C28.0397 -0.229554 29.0296 -0.212977 29.9534 0.686318C31.4331 2.12643 32.89 3.58934 34.3263 5.07297C35.1612 5.9329 35.2315 6.93166 34.473 7.74807C33.3302 8.98097 32.1192 10.1496 31.0032 11.2769C28.5626 8.838 26.188 6.46336 23.7598 4.03692Z" fill="white"/>
</g>
<defs>
<clipPath id="clip0_748_1800">
<rect width="35" height="35" fill="white"/>
</clipPath>
</defs>
</svg>
