<svg width="136" height="71" viewBox="0 0 136 71" fill="none" xmlns="http://www.w3.org/2000/svg">
<g clip-path="url(#clip0_99_4085)">
<path d="M25.3135 -1.57374e-08L25.3135 32.7569L15.0374 32.7569L15.0374 10.2761L10.246 10.2761L10.246 60.2703L15.0374 60.2703L15.0374 37.5786L25.3135 37.5786L25.3135 70.5464L20.7029 70.5464L15.0676 66.0261L10.3665 70.5464L4.38586e-08 70.5464L4.81489e-09 7.74474C2.15452e-09 3.46554 3.46554 -2.15452e-09 7.74474 -4.81489e-09L25.3135 -1.57374e-08Z" fill="#B27EE3"/>
<path d="M30.1356 0L55.4491 -1.57561e-08L55.4491 30.1352L50.8385 35.228L55.4491 40.4113L55.4491 70.5464L45.1731 70.5464L45.1731 40.3811L40.3816 40.3811L40.3816 70.5163L30.1055 70.5163L30.1055 0L30.1356 0ZM40.4117 30.1352L45.2032 30.1352L45.2032 10.2761L40.4117 10.2761L40.4117 30.1352Z" fill="#B27EE3"/>
<path d="M85.584 -1.57374e-08L85.584 70.5163L60.2705 70.5163L60.2705 0L70.5466 -6.38863e-09L70.5466 60.2703L75.3381 60.2703L75.3381 -9.36749e-09L85.6142 -1.57561e-08L85.584 -1.57374e-08Z" fill="#B27EE3"/>
<path d="M90.375 0L100.651 -6.38863e-09L100.651 60.2703L130.425 60.2703L130.425 63.6756C130.425 67.4726 127.351 70.5464 123.554 70.5464L90.375 70.5464L90.375 0Z" fill="#B27EE3"/>
<path d="M105.081 0L115.357 -6.38863e-09L115.357 46.1369L130.425 46.1369L130.425 56.413L105.111 56.413L105.111 0L105.081 0Z" fill="#B27EE3"/>
<path d="M119.486 0L119.486 42.7618L136 21.3658L119.486 0Z" fill="#B27EE3"/>
</g>
<defs>
<clipPath id="clip0_99_4085">
<rect width="136" height="70.5163" fill="white"/>
</clipPath>
</defs>
</svg>
