<svg width="48" height="48" viewBox="0 0 48 48" fill="none" xmlns="http://www.w3.org/2000/svg">
<g clip-path="url(#clip0_86_1724)">
<path d="M23.9857 46.9851C36.688 46.9851 46.9851 36.688 46.9851 23.9857C46.9851 11.2835 36.688 0.986328 23.9857 0.986328C11.2835 0.986328 0.986328 11.2835 0.986328 23.9857C0.986328 36.688 11.2835 46.9851 23.9857 46.9851Z" fill="white" stroke="white" stroke-width="0.71" stroke-miterlimit="10"/>
<path d="M23.8732 25.2826C27.687 25.2826 30.7787 22.1909 30.7787 18.3771C30.7787 14.5634 27.687 11.4717 23.8732 11.4717C20.0595 11.4717 16.9678 14.5634 16.9678 18.3771C16.9678 22.1909 20.0595 25.2826 23.8732 25.2826Z" fill="#C6C6C6"/>
<path d="M23.9855 25.5645C29.3971 25.5645 33.794 29.9614 33.794 35.373L33.794 36.5568L14.2051 36.5568L14.2051 35.373C14.2051 29.9614 18.602 25.5645 24.0137 25.5645L23.9855 25.5645Z" fill="#C6C6C6"/>
</g>
<defs>
<clipPath id="clip0_86_1724">
<rect width="48" height="48" fill="white"/>
</clipPath>
</defs>
</svg>
