<svg width="24" height="24" viewBox="0 0 24 24" fill="none" xmlns="http://www.w3.org/2000/svg">
<path fill-rule="evenodd" clip-rule="evenodd" d="M11.9999 5C12 5 12 5 12 5.65421L12 6.30841L11.9354 6.3085L11.7491 6.30917C11.5875 6.30993 11.3548 6.31144 11.0709 6.31448C10.5028 6.32056 9.73082 6.33271 8.91424 6.35697C8.09661 6.38127 7.23947 6.41756 6.49934 6.47155C5.74478 6.52659 5.1661 6.59672 4.86724 6.67579C4.57987 6.75795 4.31906 6.91411 4.11092 7.12869C3.90639 7.33954 3.7598 7.59951 3.68516 7.88339C3.42763 9.3195 3.30168 10.7761 3.30889 12.2352L3.30893 12.2425C3.29972 13.7088 3.42496 15.1729 3.68315 16.6162C3.76555 16.8874 3.91417 17.1339 4.1158 17.3334C4.3241 17.5396 4.58195 17.6887 4.86453 17.7663C5.16258 17.8457 5.74248 17.9161 6.49934 17.9713C7.23947 18.0253 8.09661 18.0615 8.91424 18.0858C9.73082 18.1101 10.5028 18.1223 11.0709 18.1283C11.3548 18.1314 11.5875 18.1329 11.7491 18.1336L11.9354 18.1343L11.9991 18.1344L12 18.7886C12 19.4428 12 19.4428 11.9999 19.4428L11.9326 19.4427L11.7429 19.442C11.5791 19.4413 11.3438 19.4397 11.0569 19.4367C10.4834 19.4305 9.70272 19.4183 8.87538 19.3937C8.04908 19.3691 7.17097 19.3321 6.40416 19.2762C5.65565 19.2216 4.95777 19.1456 4.52465 19.0298L4.52101 19.0288C4.02068 18.8919 3.56411 18.6283 3.19542 18.2634C2.82673 17.8985 2.55838 17.4447 2.41631 16.9458C2.41039 16.925 2.40551 16.904 2.40168 16.8828C2.12523 15.3501 1.99092 13.7953 2.00048 12.238C1.99306 10.6923 2.12736 9.1492 2.40167 7.62805C2.40426 7.61371 2.40733 7.59945 2.41087 7.58531C2.53974 7.07043 2.80221 6.59867 3.17176 6.21769C3.54131 5.83671 4.00485 5.56 4.51557 5.41551L4.52463 5.41295C4.95775 5.29711 5.65565 5.2212 6.40416 5.1666C7.17097 5.11067 8.04908 5.07369 8.87538 5.04914C9.70272 5.02455 10.4834 5.01228 11.0569 5.00614C11.3438 5.00307 11.5791 5.00154 11.7429 5.00077L11.9326 5.0001L11.9999 5ZM19.1328 17.767C18.8339 17.8461 18.2552 17.9162 17.5007 17.9713C16.7605 18.0253 15.9034 18.0615 15.0858 18.0858C14.2692 18.1101 13.4972 18.1223 12.9291 18.1283C12.6452 18.1314 12.4125 18.1329 12.2509 18.1336L12.0646 18.1343L12.0009 18.1344L12 18.7886C12 19.4428 12 19.4428 11.9999 19.4428L12.0674 19.4427L12.2571 19.442C12.4209 19.4413 12.6562 19.4397 12.9431 19.4367C13.5166 19.4305 14.2973 19.4183 15.1246 19.3937C15.9509 19.3691 16.829 19.3321 17.5958 19.2762C18.3443 19.2216 19.0422 19.1456 19.4754 19.0298L19.4844 19.0273C19.9952 18.8828 20.4587 18.6061 20.8282 18.2251C21.1978 17.8441 21.4603 17.3724 21.5891 16.8575C21.5927 16.8434 21.5957 16.8291 21.5983 16.8147C21.8706 15.3049 22.0048 13.7734 21.9995 12.2393C22.0091 10.6818 21.8748 9.12679 21.5983 7.59404L20.9545 7.71017L21.5891 7.55133C21.4603 7.03644 21.1978 6.56469 20.8282 6.18371C20.4587 5.80273 19.9952 5.52602 19.4844 5.38153C19.4768 5.37938 19.4692 5.37737 19.4615 5.37549C19.0336 5.271 18.3404 5.20184 17.5917 5.15198C16.8261 5.10099 15.9489 5.06725 15.1229 5.04484C14.2961 5.02241 13.5158 5.01121 12.9425 5.00561C12.6558 5.00281 12.4205 5.0014 12.2568 5.0007L12.0673 5.00009L11.9999 5C12 5 12 5 12 5.65421L12 6.30841L12.0647 6.3085L12.2512 6.3091C12.4129 6.30979 12.6457 6.31118 12.9297 6.31396C13.4981 6.31951 14.2704 6.33061 15.0874 6.35277C15.9055 6.37497 16.7635 6.40813 17.5048 6.4575C18.2534 6.50735 18.8336 6.57101 19.1395 6.64376C19.4242 6.72642 19.6826 6.88181 19.8891 7.0947C20.0936 7.30556 20.2402 7.56553 20.3148 7.84942C20.5744 9.2964 20.7003 10.7642 20.6911 12.2343L20.6911 12.2408C20.6963 13.6887 20.5704 15.1342 20.3148 16.5594C20.2402 16.8433 20.0936 17.1033 19.8891 17.3141C19.6809 17.5287 19.4201 17.6849 19.1328 17.767Z" fill="black"/>
<path fill-rule="evenodd" clip-rule="evenodd" d="M9.75885 8.89487C9.96022 8.77773 10.2087 8.77652 10.4112 8.89168L15.2963 11.6698C15.5007 11.7861 15.6271 12.0032 15.6271 12.2385C15.6271 12.4737 15.5007 12.6908 15.2963 12.8071L10.4112 15.5852C10.2087 15.7004 9.96022 15.6992 9.75885 15.5821C9.55748 15.4649 9.43359 15.2495 9.43359 15.0166V9.46036C9.43359 9.22739 9.55748 9.01201 9.75885 8.89487ZM10.742 10.585V13.8919L13.6495 12.2385L10.742 10.585Z" fill="black"/>
</svg>
